<?xml version="1.0"?><svg viewBox="0 0 512 512" xmlns="http://www.w3.org/2000/svg"><defs><style>.cls-1{fill:#a5c7e9;}.cls-2{fill:#3f6db5;}</style></defs><g data-name="Layer 3" id="Layer_3"><path class="cls-1" d="M394.69,242.83A68.67,68.67,0,0,0,447.63,176h0A68.62,68.62,0,0,1,379,107.37h0a68.61,68.61,0,0,0-60.87,36.9,95,95,0,0,1,32,26.11,97.33,97.33,0,0,0-166.95,68c0,1.15,0,2.3.07,3.44a68.64,68.64,0,0,0-81.21,105.09L409.55,346a68.65,68.65,0,0,0-31.7-105.57c0-.68,0-1.36,0-2,0-1.12,0-2.23-.06-3.34l8.48,3.77Z"/></g><g id="Outline"><path class="cls-2" d="M458.72,340H420.59a75.67,75.67,0,0,0-14.41-92.29A76,76,0,0,0,454.71,177a7.07,7.07,0,0,0-7.09-7.08,61.23,61.23,0,0,1-21.84-4,7.09,7.09,0,0,0-5,13.25,75.11,75.11,0,0,0,19.42,4.55,61.73,61.73,0,0,1-48.24,53.44,75.6,75.6,0,0,0-10.4-4.91,104.46,104.46,0,0,0-54.65-88,61.27,61.27,0,0,1,45.39-28.43,75.1,75.1,0,0,0,21.82,46.09,7.09,7.09,0,1,0,10-10,61.12,61.12,0,0,1-18-43.52,7.08,7.08,0,0,0-7.09-7.09,75.45,75.45,0,0,0-65.13,37.11,102,102,0,0,0-35.37-6.29c-54.49,0-99.24,43-102.89,97.15A75.72,75.72,0,0,0,92.32,340h-39a7.09,7.09,0,1,0,0,14.17H458.72a7.09,7.09,0,1,0,0-14.17ZM96.85,303A61.59,61.59,0,0,1,180,245.34a9.18,9.18,0,0,0,9.57-8.94c0-49.69,39.91-90.13,89-90.13,46,0,84.52,36.28,88.59,82.06A75.71,75.71,0,0,0,278.8,303,7.09,7.09,0,0,0,293,303a61.54,61.54,0,1,1,110.74,37H109.19A60.85,60.85,0,0,1,96.85,303Z"/><path class="cls-2" d="M369.36,376.56h-.06l-48.79.44a7.09,7.09,0,0,0,.07,14.17h.06l48.78-.44a7.09,7.09,0,0,0-.06-14.17Z"/><path class="cls-2" d="M187.39,391l80.44-.26a7.09,7.09,0,0,0,0-14.17h0l-80.43.26a7.09,7.09,0,0,0,0,14.17Z"/><path class="cls-2" d="M150,376.94h0l-17.26.05a7.09,7.09,0,0,0,0,14.18h0l17.26-.06a7.09,7.09,0,0,0,0-14.17Z"/><path class="cls-2" d="M325.38,414l-135.1-.44h0a7.09,7.09,0,0,0,0,14.18l135.11.44h0a7.09,7.09,0,0,0,0-14.18Z"/></g></svg>